PathFileType	4	(X/Y/Z)	walk-thru1-5-TP.trc
DataRate	CameraRate	NumFrames	NumMarkers	Units	OrigDataRate	OrigDataStartFrame	OrigNumFrames
120.00	120.00	       4	60	mm	120.00	187	       498
Frame#	Time	Top.Head			Front.Head			Rear.Head			Jaw			C7			R.Clavicle			L.Clavicle			R.Shoulder			L.Shoulder			R.Scapula			L.Scapula			R.Scap.Inf			R.Biceps.Lateral			R.Elbow			R.Elbow.Medial			R.Forearm			R.Ulna			R.Radius			R.Wrist			R.Thumb.M1			R.Thumb.M2			R.Thumb.M3			R.Finger3.M1			R.Finger3.M2			R.Finger3.M3			L.Biceps.Lateral			L.Elbow			L.Elbow.Medial			L.Forearm			L.Ulna			L.Radius			L.Wrist			L.Thumb.M1			L.Thumb.M2			L.Thumb.M3			L.Finger3.M1			L.Finger3.M2			L.Finger3.M3			V.Sacral			R.ASIS			L.ASIS			R.Thigh			R.Thigh.Front			R.Knee			R.Knee.Medial			R.Shank			R.Ankle			R.Ankle.Medial			R.Heel			R.Toe			R.MedFoot			L.Thigh			L.Knee			L.Knee.Medial			L.Shank			L.Ankle			L.Ankle.Medial			L.Heel			L.Toe			L.MedFoot			V_mid_ASIS			V_R_Knee_JC			V_L_Knee_JC			V_R_Elbow_JC			V_L_Elbow_JC			V_R_Ankle_JC			V_L_Ankle_JC			V_R_Wrist_JC			V_L_Wrist_JC			V_R_ScaTrpz_1stMC_JC			V_R_1stMC_1stPP_JC			V_R_1stPP_1stDP_JC			V_R_LunCap_3rdMC_JC			V_R_3rdMC_3rdPP_JC			V_R_3rdPP_3rdMP_JC			V_R_3rdMP_3rdDP_JC			V_L_ScaTrpz_1stMC_JC			V_L_1stMC_1stPP_JC			V_L_1stPP_1stDP_JC			V_L_LunCap_3rdMC_JC			V_L_3rdMC_3rdPP_JC			V_L_3rdPP_3rdMP_JC			V_L_3rdMP_3rdPP_JC			V_ROOT_JC			V_R_Hip_JC			V_L_Hip_JC			V_R_GlenHum_JC			V_L_GlenHum_JC			V_ForeHead_Ctr			V_Vertex			V_Sagit_Lambdoid_Suture			V_R_FrontoTemp			V_L_FrontoTemporal			V_R_ParietalOccip			V_L_ParietalOcciptal			V_R_Temporal			V_L_Temporal			V_mid_FrontRearHead			V_mid_RLGlenHumCtrs			V_C7_vert			V_C1_vert			V_Mid_Hip			
		X1	Y1	Z1	X2	Y2	Z2	X3	Y3	Z3	X4	Y4	Z4	X5	Y5	Z5	X6	Y6	Z6	X7	Y7	Z7	X8	Y8	Z8	X9	Y9	Z9	X10	Y10	Z10	X11	Y11	Z11	X12	Y12	Z12	X13	Y13	Z13	X14	Y14	Z14	X15	Y15	Z15	X16	Y16	Z16	X17	Y17	Z17	X18	Y18	Z18	X19	Y19	Z19	X20	Y20	Z20	X21	Y21	Z21	X22	Y22	Z22	X23	Y23	Z23	X24	Y24	Z24	X25	Y25	Z25	X26	Y26	Z26	X27	Y27	Z27	X28	Y28	Z28	X29	Y29	Z29	X30	Y30	Z30	X31	Y31	Z31	X32	Y32	Z32	X33	Y33	Z33	X34	Y34	Z34	X35	Y35	Z35	X36	Y36	Z36	X37	Y37	Z37	X38	Y38	Z38	X39	Y39	Z39	X40	Y40	Z40	X41	Y41	Z41	X42	Y42	Z42	X43	Y43	Z43	X44	Y44	Z44	X45	Y45	Z45	X46	Y46	Z46	X47	Y47	Z47	X48	Y48	Z48	X49	Y49	Z49	X50	Y50	Z50	X51	Y51	Z51	X52	Y52	Z52	X53	Y53	Z53	X54	Y54	Z54	X55	Y55	Z55	X56	Y56	Z56	X57	Y57	Z57	X58	Y58	Z58	X59	Y59	Z59	X60	Y60	Z60	

187	1.550	53.81189	-4.21969	1734.69141	-28.44675	15.96308	1601.55969	194.77460	-7.21622	1680.49988	85.49203	16.47912	1441.98267	303.38959	11.01614	1559.29797	208.16141	128.65115	1479.77588	207.29979	-113.85720	1456.91895	254.09029	236.14932	1481.58728	258.33365	-217.35544	1456.62988	372.37366	111.96031	1476.54626	380.23148	-79.95624	1462.39661	406.00031	121.18370	1387.20703	290.70981	279.33490	1346.24292	351.13104	325.85611	1165.58948	357.71472	229.22745	1148.49072	250.86992	321.49170	1108.64246	296.75345	335.92358	968.88049	179.92044	322.82407	952.82159	174.95825	366.33694	920.22034	158.40508	311.84860	913.14075	154.31198	276.55515	874.50836	150.23337	263.68277	824.99335	150.87601	362.73886	837.04388	186.57774	303.73050	791.44031	212.27589	265.49167	835.31726	334.79379	-235.14288	1319.34753	423.05853	-237.15807	1162.01733	429.17514	-141.70793	1142.16492	350.22931	-243.46478	1069.60718	427.60294	-256.65256	973.11047	337.05756	-248.31044	905.71149	367.65234	-286.08026	874.69843	319.36472	-248.29674	848.88312	304.55585	-222.89441	802.40594	302.62628	-222.57172	753.07520	356.38535	-294.05035	772.45038	357.56747	-260.02573	716.19940	357.83490	-200.58980	720.67731	442.17691	23.35182	1110.09265	255.45586	218.81337	1044.54138	249.40950	-136.40097	1046.73206	326.79352	205.69289	666.28503	278.44247	117.07887	551.23853	335.41937	179.19994	502.26321	348.23474	64.76630	504.57559	386.87360	134.92244	289.39362	535.42371	166.77499	90.61109	516.69196	61.09735	108.72588	602.32275	114.89007	61.26038	369.67596	136.89445	39.84703	428.17212	96.68627	78.85299	201.31535	-147.01624	673.93658	156.63109	-121.72409	542.57562	158.87129	-10.80497	519.51044	111.81331	-83.10133	338.76306	165.76117	-98.92126	79.35812	116.71449	-12.66556	116.05714	193.45918	-25.40824	43.47188	-15.96080	-98.23650	63.48878	43.11122	-53.07198	96.17165																																																																																																																															
188	1.558	47.86406	-6.02781	1734.22168	-34.08824	13.83224	1600.89209	187.83243	-9.14888	1678.96167	78.33540	14.97476	1440.99097	298.33426	7.85246	1559.09009	202.40340	127.30701	1479.51416	201.71071	-114.86169	1455.52942	248.47514	234.28352	1480.75366	252.56187	-217.53088	1455.01807	366.33759	110.91013	1476.90625	373.59305	-82.08064	1459.76404	400.14966	119.95417	1386.80273	284.41006	278.21243	1344.86426	346.59482	323.20914	1165.10266	349.10049	227.87843	1148.28552	247.02353	320.60648	1107.63330	293.17816	333.72470	966.46021	175.47240	323.22852	952.44672	170.88905	365.84256	919.28564	152.06328	313.50943	912.68420	144.74727	276.97067	875.87872	139.54448	266.07169	825.44360	146.59790	363.35797	836.52716	178.36716	301.66895	791.70276	204.72215	263.53061	834.67047	327.99161	-236.20084	1317.04138	416.20416	-239.51614	1159.43030	422.25195	-143.63329	1139.65198	343.45911	-246.17053	1067.34216	420.27368	-259.48737	971.12604	329.35678	-250.71188	903.41223	360.43585	-287.57465	872.76385	312.21176	-251.06610	846.25360	298.15677	-223.94772	801.46466	295.22446	-223.22470	750.59271	349.52316	-295.97366	771.29608	351.77188	-261.27643	714.10254	350.30334	-202.56569	718.32874	436.82861	21.35402	1109.47217	249.91357	218.12221	1043.68262	242.57867	-137.34219	1046.36243	321.30374	204.20685	666.26654	271.93503	116.79385	550.03864	330.01669	176.64795	501.13922	342.45483	63.97273	503.06168	383.70627	134.41711	289.11118	534.73981	166.17972	91.90713	514.26764	60.56787	108.77711	601.69647	114.46000	63.23518	369.63440	136.77380	39.97625	426.70618	96.87843	79.22054	195.32698	-145.00319	674.21497	147.04933	-121.61182	542.72174	152.39430	-11.52252	518.71820	105.14544	-82.12283	338.05231	163.38419	-99.21752	79.75023	114.39002	-12.91696	115.03922	192.75020	-26.18740	45.01148	-17.31697	-95.50688	56.79470	40.47802	-51.95633	94.10929																																																																																																																															
189	1.567	40.60235	-8.27316	1733.95642	-40.84635	11.87356	1600.90320	181.83229	-10.94408	1679.00623	72.49198	12.99868	1440.91772	292.44080	5.45215	1558.77991	196.16374	126.36942	1479.99536	194.76035	-116.62244	1454.34314	243.32286	233.60139	1480.35217	245.96550	-219.31569	1454.28564	360.45990	109.21162	1476.29321	366.79794	-83.41389	1459.93323	394.07962	118.14442	1386.74500	279.25592	276.79019	1344.48523	340.90015	321.96622	1164.89819	344.56647	225.91005	1148.00854	242.27519	320.05963	1106.41821	288.72089	330.73160	965.60663	170.56972	323.28989	951.86444	167.89825	366.24564	918.51971	146.58540	314.90659	912.93951	136.43307	278.71829	874.89911	129.73152	267.24487	824.87659	141.58125	363.59277	836.14954	169.10359	301.24860	790.44971	197.31831	261.77277	831.89832	320.28369	-238.70476	1315.51550	408.25305	-241.53693	1157.49829	412.42316	-145.75594	1138.06909	336.72372	-247.21375	1064.74011	412.34991	-262.12271	969.59143	322.76846	-253.29231	901.88550	353.06396	-290.40161	870.50470	305.61316	-252.97017	844.38837	291.12888	-227.72371	798.67639	288.22260	-225.77298	748.77374	341.93082	-297.75320	769.01910	344.35791	-263.94144	712.84595	341.17709	-205.12192	715.54651	429.95834	19.64237	1108.78467	243.92096	216.14636	1043.03979	235.65852	-137.82634	1046.27112	314.42905	202.07323	665.73334	266.18991	116.05064	548.75018	324.34088	176.16090	500.68390	337.28845	64.70667	501.99936	381.28799	133.52803	288.73523	534.32782	165.68115	93.61946	513.36975	60.06166	110.35661	601.14343	112.92408	65.80960	369.54105	136.98366	39.92096	426.31323	94.92257	79.72588	187.33725	-143.37167	673.89020	138.03613	-122.07101	543.37463	144.26363	-12.28264	518.71301	98.70766	-82.56718	338.33432	160.29510	-100.94183	80.21918	112.42429	-12.06178	114.90921	191.54636	-27.91919	46.23306	-18.23022	-91.47990	54.53483	38.50092	-51.93099	92.87753																																																																																																																															
190	1.575	34.27999	-10.26624	1734.04626	-47.35881	8.75436	1600.85339	175.50558	-13.22536	1679.70142	66.13302	11.93633	1441.41431	284.08322	5.01451	1559.32104	189.24026	125.25163	1479.88489	188.95912	-117.62080	1453.98486	236.31503	232.09828	1480.79663	239.48131	-220.75420	1452.20154	354.17206	107.33411	1475.71167	361.60120	-84.43771	1459.97742	388.16196	115.78226	1386.53296	274.15695	274.88113	1343.70801	335.83539	319.63705	1164.58423	342.38516	223.77716	1148.67175	237.14417	316.15796	1105.43640	285.92712	327.81796	965.36078	166.26526	321.36282	950.46814	164.54138	364.80490	917.80823	141.07750	315.58173	911.97803	129.96663	280.57693	873.68933	120.06612	271.39789	824.14740	136.78729	364.51318	836.19537	161.85712	302.05798	789.39636	187.20761	260.64337	830.25269	314.27594	-239.45367	1313.58936	400.86279	-242.51901	1156.02185	407.89093	-147.76402	1135.12708	328.91592	-249.29837	1063.34497	405.47961	-264.11554	968.18341	315.68463	-254.59836	900.10907	346.90805	-291.68246	869.07666	298.70163	-254.72534	842.76154	283.70364	-229.53906	796.16589	281.17471	-229.14101	746.13605	335.90253	-300.85577	766.97028	337.02368	-267.11646	711.39233	338.22498	-207.20076	715.04755	423.85791	19.15495	1108.38721	236.47931	215.29105	1043.46558	228.54558	-139.94527	1047.13843	308.87164	201.64993	665.92303	260.51028	114.79562	548.06641	318.55133	175.28572	500.33780	330.77847	62.16801	503.73752	377.77231	132.57950	288.97675	532.96936	164.36113	96.21798	511.87616	59.59855	112.37244	601.15393	113.79021	68.76153	369.58279	136.60858	39.99485	425.39139	94.73213	80.55251	178.94576	-143.47151	674.82928	128.46956	-121.81520	544.00714	136.12785	-12.59053	521.02393	92.18343	-82.79545	338.33823	157.54147	-101.90677	80.26098	110.62457	-12.32734	114.69149	190.67291	-29.30608	47.11536	-21.42731	-91.25068	53.72164	37.27887	-51.87493	92.21301																																																																																																																															
